<?xml version="1.0" encoding="UTF-8" standalone="no"?>
<!DOCTYPE svg PUBLIC "-//W3C//DTD SVG 1.0//EN" "http://www.w3.org/TR/2001/REC-SVG-20010904/DTD/svg10.dtd">
<!-- Generated by Microsoft Visio 11.0, SVG Export, v1.0 navigazione.svg Page-1 -->
<svg xmlns="http://www.w3.org/2000/svg" xmlns:xlink="http://www.w3.org/1999/xlink" xmlns:ev="http://www.w3.org/2001/xml-events"
		xmlns:v="http://schemas.microsoft.com/visio/2003/SVGExtensions/" width="8.26772in" height="11.6929in"
		viewBox="0 0 595.276 841.89" xml:space="preserve" color-interpolation-filters="sRGB" class="st4">
	<v:documentProperties v:langID="1040" v:metric="true" v:viewMarkup="false">
		<v:userDefs>
			<v:ud v:nameU="msvNoAutoConnect" v:val="VT0(1):26"/>
		</v:userDefs>
	</v:documentProperties>

	<style type="text/css">
	<![CDATA[
		.st1 {fill:#b7dde8;stroke:#000000;stroke-linecap:round;stroke-linejoin:round;stroke-width:0.24}
		.st2 {fill:#000000;font-family:Calibri;font-size:1.66667em}
		.st3 {font-size:1em}
		.st4 {fill:none;fill-rule:evenodd;font-size:12px;overflow:visible;stroke-linecap:square;stroke-miterlimit:3}
	]]>
	</style>

	<g v:mID="0" v:index="1" v:groupContext="foregroundPage">
		<title>Page-1</title>
		<v:pageProperties v:drawingScale="0.0393701" v:pageScale="0.0393701" v:drawingUnits="24" v:shadowOffsetX="8.50394"
				v:shadowOffsetY="-8.50394"/>
		<g id="shape2-1" v:mID="2" v:groupContext="shape" transform="translate(204.094,-654.803)">
			<title>Rounded square</title>
			<desc>Gps</desc>
			<v:userDefs>
				<v:ud v:nameU="visVersion" v:val="VT0(14):26"/>
			</v:userDefs>
			<v:textBlock v:margins="rect(4,4,4,4)" v:tabSpace="42.5197"/>
			<v:textRect cx="31.1811" cy="810.709" width="62.37" height="62.3622"/>
			<path d="M48.19 841.89 A14.1733 14.1733 -180 0 0 62.36 827.72 L62.36 793.7 A14.1733 14.1733 -180 0 0 48.19 779.53 L14.17
						 779.53 A14.1733 14.1733 -180 0 0 0 793.7 L0 827.72 A14.1733 14.1733 -180 0 0 14.17 841.89 L48.19 841.89
						 Z" class="st1"/>
			<text x="15.71" y="816.71" class="st2" v:langID="1040"><v:paragraph v:horizAlign="1"/><v:tabList/>Gps</text>		</g>
		<g id="shape1-4" v:mID="1" v:groupContext="shape" transform="translate(201.969,-564.094)">
			<title>Rounded square.1</title>
			<desc>Contapassi</desc>
			<v:userDefs>
				<v:ud v:nameU="visVersion" v:val="VT0(14):26"/>
			</v:userDefs>
			<v:textBlock v:margins="rect(4,4,4,4)" v:tabSpace="42.5197"/>
			<v:textRect cx="32.5984" cy="809.291" width="65.2" height="65.1969"/>
			<path d="M51.02 841.89 A14.1733 14.1733 -180 0 0 65.2 827.72 L65.2 790.87 A14.1733 14.1733 -180 0 0 51.02 776.69 L14.17
						 776.69 A14.1733 14.1733 -180 0 0 0 790.87 L0 827.72 A14.1733 14.1733 -180 0 0 14.17 841.89 L51.02 841.89
						 Z" class="st1"/>
			<text x="8.6" y="803.29" class="st2" v:langID="1040"><v:paragraph v:horizAlign="1"/><v:tabList/>Conta<tspan x="12.44"
						dy="1.2em" class="st3">passi</tspan></text>		</g>
		<g id="shape3-8" v:mID="3" v:groupContext="shape" transform="translate(203.386,-470.551)">
			<title>Rounded square.3</title>
			<desc>Trova Amici</desc>
			<v:userDefs>
				<v:ud v:nameU="visVersion" v:val="VT0(14):26"/>
			</v:userDefs>
			<v:textBlock v:margins="rect(4,4,4,4)" v:tabSpace="42.5197"/>
			<v:textRect cx="31.8898" cy="810" width="63.78" height="63.7795"/>
			<path d="M49.61 841.89 A14.1733 14.1733 -180 0 0 63.78 827.72 L63.78 792.28 A14.1733 14.1733 -180 0 0 49.61 778.11 L14.17
						 778.11 A14.1733 14.1733 -180 0 0 0 792.28 L0 827.72 A14.1733 14.1733 -180 0 0 14.17 841.89 L49.61 841.89
						 Z" class="st1"/>
			<text x="8.95" y="804" class="st2" v:langID="1040"><v:paragraph v:horizAlign="1"/><v:tabList/>Trova <tspan x="9.3"
						dy="1.2em" class="st3">Amici</tspan></text>		</g>
		<g id="shape4-12" v:mID="4" v:groupContext="shape" transform="translate(200.551,-373.465)">
			<title>Rounded square.4</title>
			<desc>Sveglia</desc>
			<v:userDefs>
				<v:ud v:nameU="visVersion" v:val="VT0(14):26"/>
			</v:userDefs>
			<v:textBlock v:margins="rect(4,4,4,4)" v:tabSpace="42.5197"/>
			<v:textRect cx="34.7244" cy="807.165" width="69.45" height="69.4488"/>
			<path d="M55.28 841.89 A14.1733 14.1733 -180 0 0 69.45 827.72 L69.45 786.61 A14.1733 14.1733 -180 0 0 55.28 772.44 L14.17
						 772.44 A14.1733 14.1733 -180 0 0 0 786.61 L0 827.72 A14.1733 14.1733 -180 0 0 14.17 841.89 L55.28 841.89
						 Z" class="st1"/>
			<text x="6.55" y="813.17" class="st2" v:langID="1040"><v:paragraph v:horizAlign="1"/><v:tabList/>Sveglia</text>		</g>
		<g id="shape5-15" v:mID="5" v:groupContext="shape" transform="translate(202.677,-744.094)">
			<title>Rounded square.5</title>
			<desc>News</desc>
			<v:userDefs>
				<v:ud v:nameU="visVersion" v:val="VT0(14):26"/>
			</v:userDefs>
			<v:textBlock v:margins="rect(4,4,4,4)" v:tabSpace="42.5197"/>
			<v:textRect cx="32.5984" cy="809.291" width="65.2" height="65.1969"/>
			<path d="M51.02 841.89 A14.1733 14.1733 -180 0 0 65.2 827.72 L65.2 790.87 A14.1733 14.1733 -180 0 0 51.02 776.69 L14.17
						 776.69 A14.1733 14.1733 -180 0 0 0 790.87 L0 827.72 A14.1733 14.1733 -180 0 0 14.17 841.89 L51.02 841.89
						 Z" class="st1"/>
			<text x="10.11" y="815.29" class="st2" v:langID="1040"><v:paragraph v:horizAlign="1"/><v:tabList/>News</text>		</g>
		<g id="shape6-18" v:mID="6" v:groupContext="shape" transform="translate(-599.154,124.724) rotate(-90)">
			<title>45 degree double</title>
			<v:userDefs>
				<v:ud v:nameU="visVersion" v:val="VT0(14):26"/>
			</v:userDefs>
			<path d="M0 834.43 L7.46 826.97 L7.46 831.89 L19.47 831.89 L19.47 826.97 L26.93 834.43 L19.47 841.89 L19.47 836.97 L7.46
						 836.97 L7.46 841.89 L0 834.43 Z" class="st1"/>
		</g>
		<g id="shape7-20" v:mID="7" v:groupContext="shape" transform="translate(-599.54,189.429) rotate(-88.4089)">
			<title>45 degree double.7</title>
			<v:userDefs>
				<v:ud v:nameU="visVersion" v:val="VT0(14):26"/>
			</v:userDefs>
			<path d="M0 834.43 L7.46 826.97 L7.46 831.89 L18.06 831.89 L18.06 826.97 L25.52 834.43 L18.06 841.89 L18.06 836.97 L7.46
						 836.97 L7.46 841.89 L0 834.43 Z" class="st1"/>
		</g>
		<g id="shape8-22" v:mID="8" v:groupContext="shape" transform="translate(-598.917,327.421) rotate(-91.3639)">
			<title>45 degree double.8</title>
			<v:userDefs>
				<v:ud v:nameU="visVersion" v:val="VT0(14):26"/>
			</v:userDefs>
			<path d="M0 834.43 L7.46 826.97 L7.46 831.89 L22.31 831.89 L22.31 826.97 L29.77 834.43 L22.31 841.89 L22.31 836.97 L7.46
						 836.97 L7.46 841.89 L0 834.43 Z" class="st1"/>
		</g>
		<g id="shape9-24" v:mID="9" v:groupContext="shape" transform="translate(-599.154,398.976) rotate(-90)">
			<title>45 degree double.9</title>
			<v:userDefs>
				<v:ud v:nameU="visVersion" v:val="VT0(14):26"/>
			</v:userDefs>
			<path d="M0 834.43 L7.46 826.97 L7.46 831.89 L20.18 831.89 L20.18 826.97 L27.64 834.43 L20.18 841.89 L20.18 836.97 L7.46
						 836.97 L7.46 841.89 L0 834.43 Z" class="st1"/>
		</g>
	</g>
</svg>
